<svg xmlns="http://www.w3.org/2000/svg" version="1.1" viewBox="115.78 156.81 536.41 119.29">
<path fill="#641de0" d="   M 238.6578 275.0671   C 238.66 275.64 238.19 276.11 237.6160 276.1053   L 116.8162 275.8945   C 116.24 275.89 115.78 275.43 115.7780 274.8527   L 115.9822 157.8529   C 115.98 157.28 116.45 156.81 117.0240 156.8147   L 237.8238 157.0255   C 238.40 157.03 238.86 157.49 238.8620 158.0673   L 238.6578 275.0671   Z   M 207.70 176.86   Q 205.20 176.28 202.25 176.28   Q 174.62 176.32 146.99 176.75   Q 145.15 176.78 144.75 178.58   Q 142.97 186.70 142.21 195.72   Q 142.02 198.01 144.24 198.56   Q 146.63 199.15 148.59 198.00   Q 149.85 197.26 151.22 194.88   Q 154.79 188.73 156.06 187.56   Q 158.78 185.06 162.37 184.95   Q 164.88 184.88 165.14 184.90   Q 167.24 185.05 167.10 187.47   Q 167.00 188.99 167.00 189.04   Q 167.17 216.29 166.78 243.55   Q 166.75 246.13 165.97 247.79   Q 165.02 249.80 163.49 251.48   Q 161.32 253.86 163.14 255.89   C 163.35 256.12 163.65 256.26 164.00 256.29   Q 176.31 257.16 188.63 256.58   Q 190.67 256.49 191.54 255.52   Q 193.01 253.89 191.06 251.69   Q 188.02 248.25 187.34 244.25   Q 187.25 243.69 187.25 236.23   Q 187.25 211.47 187.25 186.45   C 187.25 185.85 187.67 185.34 188.25 185.22   Q 195.53 183.77 199.51 189.44   Q 200.67 191.09 201.78 192.79   Q 201.82 192.85 202.98 194.91   Q 204.70 197.96 207.81 198.69   Q 210.66 199.35 212.24 196.93   C 212.42 196.66 212.49 196.33 212.44 196.00   L 209.75 178.99   Q 209.48 177.26 207.70 176.86   Z"/>
<path fill="#641de0" d="   M 389.28 223.41   Q 389.30 224.90 390.40 223.89   L 397.77 217.12   C 398.24 216.69 398.37 216.01 398.08 215.48   L 396.39 212.30   C 395.96 211.49 396.42 210.51 397.24 210.50   L 408.07 210.40   C 408.38 210.39 408.66 210.58 408.79 210.87   Q 409.51 212.49 407.90 213.63   Q 404.04 216.37 400.04 220.05   C 399.51 220.54 399.39 221.33 399.77 221.95   Q 405.18 230.66 412.29 238.70   Q 414.40 241.07 411.23 241.33   Q 404.75 241.87 397.64 241.28   C 396.80 241.21 396.34 240.27 396.80 239.57   Q 398.29 237.31 397.43 235.16   Q 397.26 234.76 395.46 231.94   Q 394.26 230.07 393.17 228.95   Q 391.05 226.76 389.82 229.55   Q 387.61 234.53 391.20 238.58   Q 393.41 241.07 390.08 241.29   Q 384.67 241.66 378.65 241.52   Q 378.54 241.51 377.35 241.56   Q 374.07 241.70 376.19 237.23   Q 377.22 235.07 377.30 232.67   Q 377.62 222.67 377.52 211.28   Q 377.51 211.16 377.63 208.24   Q 377.82 203.16 374.67 199.59   C 374.22 199.08 374.35 198.28 374.95 197.95   Q 381.27 194.48 386.40 192.71   Q 388.99 191.82 389.01 194.61   L 389.28 223.41   Z"/>
<path fill="#641de0" d="   M 567.81 223.58   Q 567.82 224.80 568.74 224.01   L 576.12 217.71   Q 577.55 216.49 576.58 214.89   L 575.00 212.25   Q 573.80 210.25 577.00 210.25   L 586.49 210.25   C 586.85 210.25 587.18 210.36 587.41 210.55   Q 588.95 211.82 587.19 213.19   Q 582.84 216.57 578.55 220.31   C 578.12 220.68 578.03 221.32 578.34 221.80   Q 584.40 231.08 591.75 239.75   Q 592.65 240.81 591.27 241.00   Q 583.64 242.03 576.00 241.25   C 575.34 241.18 575.07 240.35 575.50 239.75   Q 577.63 236.77 575.60 234.07   Q 574.69 232.86 574.61 232.73   Q 573.14 230.49 571.97 229.01   Q 570.34 226.96 568.95 229.18   Q 566.26 233.45 569.66 238.23   Q 571.83 241.28 568.22 241.32   L 555.64 241.48   Q 552.69 241.52 554.21 238.90   Q 556.25 235.39 556.25 231.25   Q 556.25 220.56 556.25 209.87   Q 556.25 205.19 556.24 205.13   Q 555.85 202.80 553.91 200.77   Q 552.23 199.00 554.29 197.69   Q 559.00 194.70 565.46 192.68   Q 567.68 191.99 567.69 194.31   L 567.81 223.58   Z"/>
<path fill="#641de0" d="   M 426.20 200.17   Q 421.90 199.07 419.69 202.69   Q 417.79 205.80 416.97 207.03   C 416.79 207.30 416.53 207.51 416.23 207.61   Q 412.03 209.02 412.78 204.22   Q 413.41 200.24 414.11 197.19   Q 414.55 195.27 416.51 195.27   L 449.23 195.26   Q 451.33 195.26 451.60 197.17   L 452.89 206.46   C 452.98 207.09 452.52 207.67 451.86 207.78   Q 448.68 208.29 447.23 204.76   Q 445.12 199.60 440.41 199.93   Q 438.44 200.08 438.48 202.05   Q 438.85 217.67 438.76 232.67   Q 438.75 234.68 439.37 236.23   Q 440.08 238.01 441.01 239.52   Q 442.18 241.43 439.96 241.44   L 426.34 241.50   Q 423.44 241.51 424.98 239.04   Q 427.17 235.54 427.07 231.21   Q 427.02 228.86 427.02 228.79   Q 427.21 214.79 426.70 200.80   C 426.69 200.50 426.49 200.25 426.20 200.17   Z"/>
<path fill="#641de0" d="   M 272.07 202.95   Q 269.65 206.82 268.69 207.44   Q 266.89 208.58 265.64 207.32   C 265.43 207.11 265.31 206.79 265.31 206.44   Q 265.30 201.15 266.79 196.15   C 266.94 195.62 267.43 195.25 267.99 195.25   L 301.38 195.25   Q 303.17 195.25 303.73 196.95   Q 304.88 200.41 305.20 205.00   Q 305.45 208.48 302.84 207.78   Q 301.63 207.46 300.62 206.11   Q 299.33 204.39 298.20 202.55   Q 296.35 199.56 292.04 200.09   C 291.45 200.16 291.00 200.67 291.00 201.27   L 291.00 233.77   Q 291.00 235.61 292.15 237.03   Q 294.11 239.45 293.34 240.64   C 293.20 240.86 292.88 241.02 292.50 241.06   Q 285.02 242.00 277.67 241.27   C 277.06 241.21 276.71 240.55 276.99 240.01   Q 278.82 236.54 279.21 232.75   Q 279.25 232.36 279.26 225.25   Q 279.28 213.28 279.19 201.31   C 279.19 200.99 279.02 200.70 278.75 200.56   Q 276.65 199.47 274.68 200.30   Q 273.38 200.84 272.07 202.95   Z"/>
<path fill="#641de0" d="   M 309.44 214.19   Q 310.16 212.30 312.52 211.43   Q 313.11 211.21 316.33 210.33   Q 324.64 208.06 331.56 212.94   Q 335.23 215.53 336.56 220.44   Q 337.52 223.97 338.34 232.48   Q 338.55 234.72 339.08 235.92   Q 339.86 237.69 341.18 238.85   C 341.81 239.41 341.65 240.44 340.88 240.78   Q 334.16 243.76 328.41 239.79   C 328.16 239.62 327.84 239.61 327.58 239.77   Q 321.63 243.51 314.67 241.38   Q 310.34 240.06 308.68 236.49   Q 307.16 233.20 308.28 229.43   Q 309.88 224.05 316.23 222.65   Q 320.52 221.70 324.58 223.45   C 325.23 223.72 325.94 223.23 325.91 222.53   Q 325.81 219.78 325.06 216.74   Q 324.47 214.34 323.47 213.43   Q 321.84 211.96 319.47 213.53   C 319.22 213.69 319.02 213.96 318.90 214.29   Q 317.60 217.97 314.81 220.60   C 314.57 220.82 314.26 220.96 313.94 220.99   Q 306.60 221.60 309.44 214.19   Z   M 323.9709 238.6303   C 326.04 238.37 327.35 235.29 326.9111 231.7340   C 326.47 228.18 324.44 225.51 322.3691 225.7697   C 320.30 226.03 318.99 229.11 319.4289 232.6660   C 319.87 236.22 321.90 238.89 323.9709 238.6303   Z"/>
<path fill="#641de0" d="   M 348.50 212.20   Q 351.77 209.81 356.24 209.61   Q 361.73 209.37 366.94 211.81   Q 368.82 212.69 370.00 214.15   Q 371.22 215.67 371.10 217.64   Q 370.90 220.82 367.77 221.08   Q 365.62 221.27 364.06 219.92   Q 362.47 218.55 361.93 216.30   Q 361.52 214.57 360.09 213.52   Q 357.86 211.89 356.26 213.47   Q 355.13 214.60 355.20 216.45   Q 355.30 218.83 357.06 220.19   Q 359.18 221.81 364.02 223.72   Q 368.10 225.33 369.44 226.62   Q 372.10 229.16 371.77 232.78   Q 371.40 236.86 367.75 239.48   Q 364.34 241.92 359.76 242.13   Q 354.51 242.36 349.19 240.56   Q 347.21 239.89 345.79 238.65   Q 344.29 237.34 343.82 235.48   Q 343.05 232.51 345.59 230.98   Q 347.21 230.01 349.05 230.37   Q 351.18 230.78 352.19 232.56   Q 353.47 234.83 354.36 236.75   Q 355.21 238.59 357.20 238.99   Q 360.34 239.63 360.88 236.73   Q 361.35 234.17 359.97 232.54   Q 359.17 231.61 356.60 230.58   Q 354.23 229.64 351.86 228.69   Q 348.74 227.45 347.38 226.35   Q 343.51 223.26 344.37 218.63   Q 345.11 214.68 348.50 212.20   Z"/>
<path fill="#641de0" d="   M 468.52 213.21   Q 468.09 215.22 469.42 213.65   Q 473.18 209.16 477.94 209.95   Q 480.98 210.46 482.41 213.11   Q 484.07 216.17 482.31 219.28   Q 480.94 221.73 478.40 222.04   Q 475.00 222.45 473.75 218.50   Q 472.62 214.94 470.42 216.96   C 470.19 217.17 470.04 217.46 469.98 217.80   Q 468.76 225.37 469.14 233.02   Q 469.24 234.91 470.07 236.28   Q 470.97 237.77 472.19 239.06   Q 474.41 241.42 471.19 241.44   L 457.73 241.50   Q 454.43 241.52 456.33 238.79   Q 458.13 236.19 458.25 233.01   Q 458.41 228.13 458.26 223.25   Q 458.19 221.17 457.36 219.55   Q 456.47 217.81 455.33 216.22   C 455.07 215.84 455.17 215.32 455.55 215.07   Q 460.69 211.71 466.52 209.89   C 466.83 209.80 467.15 209.87 467.36 210.08   Q 468.87 211.56 468.52 213.21   Z"/>
<path fill="#641de0" d="   M 502.97 223.19   Q 503.03 220.87 502.00 216.50   Q 501.05 212.48 497.56 212.97   C 497.20 213.02 496.91 213.21 496.77 213.47   L 493.93 218.70   Q 492.63 221.10 490.43 221.26   Q 487.78 221.44 486.56 219.67   Q 485.56 218.21 485.93 216.05   Q 486.38 213.40 488.56 212.06   Q 491.47 210.27 496.76 209.95   Q 509.98 209.14 513.67 220.27   Q 514.35 222.32 514.79 226.83   Q 515.11 230.14 515.56 233.44   Q 515.99 236.66 517.88 238.51   Q 519.83 240.43 517.20 241.18   Q 512.76 242.45 508.58 241.57   C 507.70 241.38 506.91 240.88 506.37 240.16   Q 505.35 238.80 504.45 239.56   Q 503.37 240.48 503.21 240.56   Q 497.31 243.37 490.96 241.01   Q 484.80 238.71 485.18 232.01   Q 485.59 224.96 492.00 223.00   Q 497.06 221.45 502.47 223.50   C 502.70 223.59 502.96 223.43 502.97 223.19   Z   M 501.2275 238.6680   C 503.28 238.38 504.54 235.26 504.0444 231.6846   C 503.55 228.11 501.48 225.45 499.4325 225.7320   C 497.38 226.02 496.12 229.14 496.6156 232.7154   C 497.11 236.29 499.18 238.95 501.2275 238.6680   Z"/>
<path fill="#641de0" d="   M 529.90 211.29   Q 535.95 208.45 543.29 210.78   Q 549.25 212.67 550.50 217.75   Q 551.18 220.53 549.25 221.92   Q 547.62 223.09 545.56 222.73   Q 543.41 222.36 541.94 220.31   Q 539.82 217.37 538.77 215.66   Q 536.22 211.48 533.25 213.62   Q 531.51 214.88 530.95 217.65   Q 529.60 224.33 533.32 229.75   Q 535.46 232.86 538.44 233.73   Q 541.90 234.74 545.40 232.89   Q 546.00 232.57 546.81 231.78   Q 547.47 231.13 548.22 230.60   Q 549.21 229.90 550.04 230.14   Q 551.35 230.50 550.75 232.50   Q 548.09 241.32 538.49 241.82   Q 526.56 242.43 521.94 232.56   Q 518.77 225.79 521.57 219.67   Q 524.18 213.98 529.90 211.29   Z"/>
<path fill="#641de0" d="   M 599.74 212.21   Q 607.18 207.12 616.69 212.06   Q 619.35 213.45 620.15 216.67   Q 621.05 220.30 618.00 222.22   Q 612.72 225.53 606.58 228.87   Q 604.45 230.02 606.35 231.52   Q 612.13 236.08 617.83 232.31   Q 619.12 231.45 619.66 231.27   Q 621.67 230.62 621.19 232.99   Q 621.02 233.85 620.48 234.81   Q 616.07 242.74 606.51 241.94   Q 602.37 241.59 599.16 239.42   Q 596.20 237.42 594.26 233.76   Q 591.07 227.74 592.95 221.48   Q 594.72 215.64 599.74 212.21   Z   M 603.06 216.68   Q 602.24 219.20 602.74 221.89   Q 602.92 222.88 602.95 224.14   Q 602.99 226.80 605.09 225.70   Q 606.97 224.70 607.13 224.63   Q 612.26 222.27 610.97 216.97   Q 610.51 215.06 609.38 213.92   Q 607.65 212.15 605.61 213.30   Q 603.84 214.31 603.06 216.68   Z"/>
<path fill="#641de0" d="   M 638.09 213.34   Q 640.02 211.19 643.60 210.21   Q 649.75 208.54 651.69 213.81   Q 653.15 217.82 650.35 220.46   Q 648.70 222.01 646.62 221.82   Q 644.09 221.57 643.03 219.08   Q 642.21 217.13 642.18 217.10   Q 640.76 214.80 639.17 216.93   Q 638.51 217.80 638.35 219.26   Q 637.77 224.58 637.95 229.95   Q 637.95 230.09 637.85 232.54   Q 637.72 235.49 639.78 237.72   Q 640.75 238.78 641.24 239.69   C 641.55 240.28 641.16 240.99 640.51 241.00   L 626.41 241.14   Q 624.11 241.17 625.20 239.01   Q 627.38 234.73 627.12 231.24   Q 626.84 227.49 627.08 223.74   Q 627.30 220.27 624.94 217.25   Q 623.45 215.33 625.64 214.29   Q 629.90 212.26 634.81 210.15   Q 637.24 209.11 636.93 212.84   Q 636.76 214.82 638.09 213.34   Z"/>
</svg>