<svg xmlns="http://www.w3.org/2000/svg" xmlns:xlink="http://www.w3.org/1999/xlink" version="1.1" xml:space="preserve" viewBox="0 0 803.75 794.39">
<desc fill="#000000">Created with Fabric.js 3.5.0</desc>
<defs fill="#000000">
</defs>
<rect x="0" y="0" width="100%" height="100%" fill="#ffffff"/>
<g transform="matrix(4.9357 0 0 4.9357 500.0016 500.0015)" id="289180">
<path style="stroke: none; stroke-width: 1; stroke-dasharray: none; stroke-linecap: butt; stroke-dashoffset: 0; stroke-linejoin: miter; stroke-miterlimit: 4; is-custom-font: none; font-file-url: none; fill:#65c2c7; fill-rule: nonzero; opacity: 1;" transform=" translate(-177.32, -216.46)" d="M 238.6578 275.0671 C 238.66 275.64 238.19 276.11 237.616 276.1053 L 116.8162 275.8945 C 116.24 275.89 115.78 275.43 115.778 274.8527 L 115.9822 157.8529 C 115.98 157.28 116.45 156.81 117.024 156.8147 L 237.8238 157.0255 C 238.4 157.03 238.86 157.49 238.862 158.0673 L 238.6578 275.0671 Z M 207.7 176.86 Q 205.2 176.28 202.25 176.28 Q 174.62 176.32 146.99 176.75 Q 145.15 176.78 144.75 178.58 Q 142.97 186.7 142.21 195.72 Q 142.02 198.01 144.24 198.56 Q 146.63 199.15 148.59 198 Q 149.85 197.26 151.22 194.88 Q 154.79 188.73 156.06 187.56 Q 158.78 185.06 162.37 184.95 Q 164.88 184.88 165.14 184.9 Q 167.24 185.05 167.1 187.47 Q 167 188.99 167 189.04 Q 167.17 216.29 166.78 243.55 Q 166.75 246.13 165.97 247.79 Q 165.02 249.8 163.49 251.48 Q 161.32 253.86 163.14 255.89 C 163.35 256.12 163.65 256.26 164 256.29 Q 176.31 257.16 188.63 256.58 Q 190.67 256.49 191.54 255.52 Q 193.01 253.89 191.06 251.69 Q 188.02 248.25 187.34 244.25 Q 187.25 243.69 187.25 236.23 Q 187.25 211.47 187.25 186.45 C 187.25 185.85 187.67 185.34 188.25 185.22 Q 195.53 183.77 199.51 189.44 Q 200.67 191.09 201.78 192.79 Q 201.82 192.85 202.98 194.91 Q 204.7 197.96 207.81 198.69 Q 210.66 199.35 212.24 196.93 C 212.42 196.66 212.49 196.33 212.44 196 L 209.75 178.99 Q 209.48 177.26 207.7 176.86 Z" stroke-linecap="round"/>
</g>
</svg>